<svg width="270" height="70" fill="none" xmlns="http://www.w3.org/2000/svg"><path d="M.32 69h3.95v-4.32h2.19c3.31 0 5.54-1.95 5.54-5.08 0-3.1-2.17-5.15-5.4-5.15H.32V69Zm3.95-7.39v-4h1.4c1.38 0 2.2.74 2.2 1.99 0 1.24-.82 2.01-2.2 2.01h-1.4ZM13.45 69h3.94v-4.8h1.37L21.3 69h4.3l-2.96-5.43c1.55-.74 2.47-2.16 2.47-4.17 0-3.1-2.16-4.95-5.4-4.95h-6.27V69Zm3.94-7.87v-3.52h1.4c1.38 0 2.21.54 2.21 1.79 0 1.24-.83 1.73-2.21 1.73h-1.4ZM30.58 69l.84-2.78h4.8l.84 2.78h4.26l-4.8-14.55h-5.4L26.32 69h4.26Zm1.74-5.74 1.44-4.8h.12l1.45 4.8h-3.01ZM55.62 59.9c-.31-3.6-2.96-5.64-6.62-5.64-3.92 0-7.02 2.61-7.02 7.47 0 4.83 3.01 7.47 7.02 7.47 4.26 0 6.42-2.96 6.62-5.43l-4-.03c-.2 1.25-1.09 2.02-2.54 2.02-1.92 0-3.04-1.36-3.04-4.03 0-2.53 1.08-4.04 3.07-4.04 1.52 0 2.39.9 2.5 2.22h4ZM57.01 57.64h4.38V69h3.89V57.64h4.37v-3.19H57.01v3.19ZM75.09 54.45h-3.95V69h3.95V54.45ZM90.54 59.9c-.31-3.6-2.95-5.64-6.62-5.64-3.92 0-7.02 2.61-7.02 7.47 0 4.83 3.02 7.47 7.02 7.47 4.26 0 6.42-2.96 6.62-5.43l-4-.03c-.2 1.25-1.08 2.02-2.53 2.02-1.93 0-3.04-1.36-3.04-4.03 0-2.53 1.08-4.04 3.06-4.04 1.52 0 2.4.9 2.5 2.22h4.01ZM100.94 54.45v8.98c0 1.36-.97 2.33-2.33 2.33a2.25 2.25 0 0 1-2.33-2.33v-8.98h-3.95v9.32c0 3.33 2.52 5.4 6.28 5.4 3.74 0 6.28-2.07 6.28-5.4v-9.32h-3.95ZM106.77 54.45V69h3.86v-8.47h.11l3.24 8.36h2.33l3.24-8.3h.11V69h3.87V54.45h-4.92l-3.38 8.24h-.17l-3.38-8.24h-4.91ZM133.16 69l.84-2.78h4.8l.84 2.78h4.26l-4.8-14.55h-5.4L128.9 69h4.26Zm1.73-5.74 1.45-4.8h.12l1.45 4.8h-3.02ZM145.3 69h3.95v-4.8h1.36l2.56 4.8h4.29l-2.96-5.43c1.55-.74 2.48-2.16 2.48-4.17 0-3.1-2.17-4.95-5.4-4.95h-6.28V69Zm3.95-7.87v-3.52h1.4c1.38 0 2.2.54 2.2 1.79 0 1.24-.82 1.73-2.2 1.73h-1.4ZM158.26 57.64h4.38V69h3.89V57.64h4.37v-3.19h-12.64v3.19ZM185.82 59.26h4c-.31-2.92-2.96-5-6.4-5-3.92 0-7.1 2.7-7.1 7.5 0 4.6 2.88 7.44 7.13 7.44 3.8 0 6.53-2.33 6.53-6.3v-2.02h-6.45v2.8h2.65c-.04 1.27-.93 2.08-2.7 2.08-2.05 0-3.1-1.5-3.1-4.06 0-2.52 1.14-4 3.13-4 1.23 0 2.07.56 2.31 1.56ZM195.15 69l.84-2.78h4.8l.84 2.78h4.26l-4.8-14.55h-5.4L190.9 69h4.26Zm1.74-5.74 1.45-4.8h.1l1.46 4.8h-3.01ZM207.3 69h9.82v-3.18h-5.88V54.45h-3.95V69ZM218.72 69h9.83v-3.18h-5.88V54.45h-3.95V69ZM230.15 69h10.45v-3.18h-6.5v-2.5h5.99v-3.18h-6v-2.5h6.54v-3.19h-10.48V69ZM242.59 69h3.94v-4.8h1.37l2.56 4.8h4.28l-2.95-5.43c1.55-.74 2.47-2.16 2.47-4.17 0-3.1-2.16-4.95-5.4-4.95h-6.27V69Zm3.94-7.87v-3.52h1.4c1.38 0 2.21.54 2.21 1.79 0 1.24-.83 1.73-2.21 1.73h-1.4ZM254.66 54.45l5.35 9.98V69h3.92v-4.57l5.34-9.98h-4.4l-2.85 5.91h-.11l-2.84-5.9h-4.4Z" fill="#fff"/><path d="M118 2c0-1.1.9-2 2-2h28a2 2 0 0 1 2 2v28a2 2 0 0 1-2 2h-28a2 2 0 0 1-2-2V2Z" fill="#0278FE"/><path d="M150 6h-32v2h32V6Z" fill="#2A2C2F"/><path d="M131 6h-2v26h2V6Z" fill="#2A2C2F"/></svg>
